
<svg width="43" height="43" viewBox="0 0 43 43" fill="none" xmlns="http://www.w3.org/2000/svg">
<path d="M7.32031 17.9844C7.70864 17.9844 8.02344 17.6696 8.02344 17.2812C8.02344 16.8929 7.70864 16.5781 7.32031 16.5781C6.93199 16.5781 6.61719 16.8929 6.61719 17.2812C6.61719 17.6696 6.93199 17.9844 7.32031 17.9844Z" fill="#555A6E"/>
<path d="M6.61719 19.2697V23.6094C6.61719 23.9977 6.93201 24.3125 7.32031 24.3125H35.6796C36.0679 24.3125 36.3828 23.9977 36.3828 23.6094V19.2697C37.2011 18.9795 37.789 18.1979 37.789 17.2812C37.789 16.1181 36.8427 15.1719 35.6796 15.1719C34.5166 15.1719 33.5703 16.1181 33.5703 17.2812C33.5703 18.1979 34.1582 18.9794 34.9765 19.2697V22.9062H8.02344V19.2697C8.84179 18.9795 9.42969 18.1979 9.42969 17.2812C9.42969 16.1181 8.48337 15.1719 7.32031 15.1719C6.15726 15.1719 5.21094 16.1181 5.21094 17.2812C5.21094 18.1979 5.79884 18.9794 6.61719 19.2697ZM35.6796 16.5781C36.0673 16.5781 36.3828 16.8936 36.3828 17.2812C36.3828 17.6689 36.0673 17.9844 35.6796 17.9844C35.2919 17.9844 34.9765 17.6689 34.9765 17.2812C34.9765 16.8936 35.2919 16.5781 35.6796 16.5781ZM7.32031 16.5781C7.708 16.5781 8.02344 16.8936 8.02344 17.2812C8.02344 17.6689 7.708 17.9844 7.32031 17.9844C6.93263 17.9844 6.61719 17.6689 6.61719 17.2812C6.61719 16.8936 6.93263 16.5781 7.32031 16.5781Z" fill="#1974FB"/>
<path d="M5.32812 36.2656C5.71645 36.2656 6.03125 35.9508 6.03125 35.5625C6.03125 35.1742 5.71645 34.8594 5.32812 34.8594C4.9398 34.8594 4.625 35.1742 4.625 35.5625C4.625 35.9508 4.9398 36.2656 5.32812 36.2656Z" fill="#555A6E"/>
<path d="M2.51562 27.8281C2.90395 27.8281 3.21875 27.5133 3.21875 27.125C3.21875 26.7367 2.90395 26.4219 2.51562 26.4219C2.1273 26.4219 1.8125 26.7367 1.8125 27.125C1.8125 27.5133 2.1273 27.8281 2.51562 27.8281Z" fill="#555A6E"/>
<path d="M37.6719 36.2656C38.0602 36.2656 38.375 35.9508 38.375 35.5625C38.375 35.1742 38.0602 34.8594 37.6719 34.8594C37.2835 34.8594 36.9688 35.1742 36.9688 35.5625C36.9688 35.9508 37.2835 36.2656 37.6719 36.2656Z" fill="#555A6E"/>
<path d="M37.6719 33.4531C37.3556 33.4531 37.0558 33.5235 36.7863 33.6488L33.3703 30.1495C33.238 30.014 33.0567 29.9375 32.8672 29.9375H10.1328C9.94344 29.9375 9.76203 30.014 9.62967 30.1495L6.21371 33.6488C5.94424 33.5235 5.64436 33.4531 5.32812 33.4531C4.16507 33.4531 3.21875 34.3994 3.21875 35.5625C3.21875 36.7256 4.16507 37.6719 5.32812 37.6719C6.49118 37.6719 7.4375 36.7256 7.4375 35.5625C7.4375 35.2283 7.35901 34.9121 7.22006 34.631L10.429 31.3438H32.571L35.7799 34.631C35.641 34.9121 35.5625 35.2283 35.5625 35.5625C35.5625 36.7256 36.5088 37.6719 37.6719 37.6719C38.8349 37.6719 39.7812 36.7256 39.7812 35.5625C39.7812 34.3994 38.8349 33.4531 37.6719 33.4531ZM4.625 35.5625C4.625 35.1748 4.94044 34.8594 5.32812 34.8594C5.71581 34.8594 6.03125 35.1748 6.03125 35.5625C6.03125 35.9502 5.71581 36.2656 5.32812 36.2656C4.94044 36.2656 4.625 35.9502 4.625 35.5625ZM37.6719 36.2656C37.2842 36.2656 36.9688 35.9502 36.9688 35.5625C36.9688 35.1748 37.2842 34.8594 37.6719 34.8594C38.0596 34.8594 38.375 35.1748 38.375 35.5625C38.375 35.9502 38.0596 36.2656 37.6719 36.2656Z" fill="#1974FB"/>
<path d="M35.6797 17.9844C36.068 17.9844 36.3828 17.6696 36.3828 17.2812C36.3828 16.8929 36.068 16.5781 35.6797 16.5781C35.2914 16.5781 34.9766 16.8929 34.9766 17.2812C34.9766 17.6696 35.2914 17.9844 35.6797 17.9844Z" fill="#555A6E"/>
<path d="M40.4844 27.8281C40.8727 27.8281 41.1875 27.5133 41.1875 27.125C41.1875 26.7367 40.8727 26.4219 40.4844 26.4219C40.096 26.4219 39.7812 26.7367 39.7812 27.125C39.7812 27.5133 40.096 27.8281 40.4844 27.8281Z" fill="#555A6E"/>
<path d="M40.4844 25.0156C39.5678 25.0156 38.7862 25.6035 38.4959 26.4219H4.50406C4.21385 25.6035 3.43224 25.0156 2.51562 25.0156C1.35257 25.0156 0.40625 25.9619 0.40625 27.125C0.40625 28.2881 1.35257 29.2344 2.51562 29.2344C3.43224 29.2344 4.21376 28.6465 4.50406 27.8281H38.4959C38.7862 28.6465 39.5678 29.2344 40.4844 29.2344C41.6474 29.2344 42.5938 28.2881 42.5938 27.125C42.5938 25.9619 41.6474 25.0156 40.4844 25.0156ZM2.51562 27.8281C2.12794 27.8281 1.8125 27.5127 1.8125 27.125C1.8125 26.7373 2.12794 26.4219 2.51562 26.4219C2.90331 26.4219 3.21875 26.7373 3.21875 27.125C3.21875 27.5127 2.90331 27.8281 2.51562 27.8281ZM40.4844 27.8281C40.0967 27.8281 39.7812 27.5127 39.7812 27.125C39.7812 26.7373 40.0967 26.4219 40.4844 26.4219C40.8721 26.4219 41.1875 26.7373 41.1875 27.125C41.1875 27.5127 40.8721 27.8281 40.4844 27.8281Z" fill="#1974FB"/>
<path d="M22.2877 0.749727C22.0843 0.530703 21.7989 0.40625 21.5 0.40625C21.2011 0.40625 20.9157 0.530703 20.7123 0.749727L18.1643 3.49376C18.0486 3.6183 17.9844 3.78187 17.9844 3.95185C17.9844 4.32362 18.2858 4.625 18.6575 4.625H20.0938V9.54688C20.0938 9.93518 20.4086 10.25 20.7969 10.25H22.2031C22.5914 10.25 22.9062 9.93518 22.9062 9.54688V4.625H24.3425C24.7142 4.625 25.0156 4.32362 25.0156 3.95185C25.0156 3.78195 24.9514 3.6183 24.8357 3.49376L22.2877 0.749727Z" fill="#1974FB"/>
<path d="M10.3346 0.749727C10.1312 0.530703 9.84579 0.40625 9.54688 0.40625C9.24796 0.40625 8.96258 0.530703 8.7592 0.749727L6.21116 3.49376C6.0955 3.6183 6.03125 3.78195 6.03125 3.95185C6.03125 4.32362 6.33263 4.625 6.7044 4.625H8.14062V9.54688C8.14062 9.93518 8.45545 10.25 8.84375 10.25H10.25C10.6383 10.25 10.9531 9.93518 10.9531 9.54688V4.625H12.3893C12.7611 4.625 13.0625 4.32362 13.0625 3.95185C13.0625 3.78195 12.9983 3.6183 12.8826 3.49376L10.3346 0.749727Z" fill="#1974FB"/>
<path d="M36.7888 3.49376L34.2408 0.749727C34.0374 0.530703 33.752 0.40625 33.4531 0.40625C33.1542 0.40625 32.8688 0.530703 32.6654 0.749727L30.1174 3.49376C30.0017 3.6183 29.9375 3.78187 29.9375 3.95185C29.9375 4.32362 30.2389 4.625 30.6107 4.625H32.0469V9.54688C32.0469 9.93518 32.3617 10.25 32.75 10.25H34.1562C34.5446 10.25 34.8594 9.93518 34.8594 9.54688V4.625H36.2956C36.6674 4.625 36.9688 4.32362 36.9688 3.95185C36.9688 3.78195 36.9045 3.6183 36.7888 3.49376Z" fill="#1974FB"/>
<path d="M11.9475 28.24L15.875 24.3125V31.3438L13.3538 33.865C13.1673 34.0515 12.9144 34.1562 12.6506 34.1562C12.1015 34.1562 11.6562 33.7111 11.6562 33.1619V28.9431C11.6562 28.6794 11.761 28.4265 11.9475 28.24Z" fill="#5AD7FF"/>
<path d="M31.0525 28.24L27.125 24.3125V31.3438L29.6462 33.865C29.8327 34.0515 30.0856 34.1562 30.3494 34.1562C30.8985 34.1562 31.3438 33.7111 31.3438 33.1619V28.9431C31.3438 28.6794 31.239 28.4265 31.0525 28.24Z" fill="#2387C3"/>
<path d="M25.0156 34.1562H17.9844C16.8194 34.1562 15.875 33.2119 15.875 32.0469V16.5071C15.875 13.4282 17.2204 10.503 19.5581 8.49931L20.263 7.89506C20.6076 7.59983 21.0463 7.4375 21.5 7.4375C21.9537 7.4375 22.3924 7.59983 22.737 7.89506L23.4419 8.49931C25.7796 10.503 27.125 13.4282 27.125 16.5071V32.0469C27.125 33.2119 26.1806 34.1562 25.0156 34.1562Z" fill="#A5C3DC"/>
<path d="M17.9844 34.1562H21.5V7.4375C21.0463 7.4375 20.6076 7.59983 20.263 7.89506L19.5581 8.49931C17.2204 10.503 15.875 13.4282 15.875 16.5071V32.0469C15.875 33.2119 16.8194 34.1562 17.9844 34.1562Z" fill="#D7E6F0"/>
<path d="M21.4999 7.4375V13.0625H16.4541C17.0588 11.3117 18.1205 9.73145 19.5584 8.49922L20.2633 7.89541C20.4355 7.74775 20.6315 7.6335 20.8407 7.55527C21.0499 7.47793 21.2731 7.4375 21.4999 7.4375Z" fill="#5AD7FF"/>
<path d="M26.5458 13.0625H21.5V7.4375C21.7268 7.4375 21.95 7.47793 22.1592 7.55527C22.3684 7.6335 22.5644 7.74775 22.7366 7.89541L23.4415 8.49922C24.8794 9.73145 25.9411 11.3117 26.5458 13.0625Z" fill="#2387C3"/>
<path d="M21.5 21.5C23.4416 21.5 25.0156 19.926 25.0156 17.9844C25.0156 16.0427 23.4416 14.4688 21.5 14.4688C19.5584 14.4688 17.9844 16.0427 17.9844 17.9844C17.9844 19.926 19.5584 21.5 21.5 21.5Z" fill="#2387C3"/>
<path d="M21.5 14.4688C19.5584 14.4688 17.9844 16.0428 17.9844 17.9844C17.9844 19.926 19.5584 21.5 21.5 21.5V14.4688Z" fill="#5AD7FF"/>
<path d="M21.5 20.0938C22.665 20.0938 23.6094 19.1494 23.6094 17.9844C23.6094 16.8194 22.665 15.875 21.5 15.875C20.335 15.875 19.3906 16.8194 19.3906 17.9844C19.3906 19.1494 20.335 20.0938 21.5 20.0938Z" fill="#463C4B"/>
<path d="M22.9916 16.4927C22.1678 15.6689 20.8323 15.6689 20.0085 16.4927C19.1847 17.3165 19.1847 18.6521 20.0085 19.4758L22.9916 16.4927Z" fill="#555A6E"/>
<path d="M25.0156 34.1562H17.9844V35.5625H25.0156V34.1562Z" fill="#463C4B"/>
<path d="M21.5 34.1562C21.8883 34.1562 22.2031 33.8414 22.2031 33.4531V25.0156C22.2031 24.6273 21.8883 24.3125 21.5 24.3125C21.1117 24.3125 20.7969 24.6273 20.7969 25.0156V33.4531C20.7969 33.8414 21.1117 34.1562 21.5 34.1562Z" fill="#2387C3"/>
<path d="M17.9844 35.5625V37.9063C17.9844 38.2946 18.2992 38.6094 18.6875 38.6094C19.0758 38.6094 19.3906 38.2946 19.3906 37.9063V37.6719C19.3906 37.2836 19.7054 36.9688 20.0938 36.9688C20.4821 36.9688 20.7969 37.2836 20.7969 37.6719V41.8906C20.7969 42.2789 21.1117 42.5938 21.5 42.5938C21.8883 42.5938 22.2031 42.2789 22.2031 41.8906V37.6719C22.2031 37.2836 22.5179 36.9688 22.9062 36.9688C23.2946 36.9688 23.6094 37.2836 23.6094 37.6719V39.7812C23.6094 40.1696 23.9242 40.4844 24.3125 40.4844C24.7008 40.4844 25.0156 40.1696 25.0156 39.7812V35.5625H17.9844Z" fill="#FFCD05"/>
</svg>