<svg width="38" height="38" viewBox="0 0 38 38" fill="none" xmlns="http://www.w3.org/2000/svg">
<path d="M30.2289 29.8808L8.0258 7.6777C7.92965 7.58156 7.77396 7.58156 7.67782 7.6777C7.58168 7.77367 7.58168 7.9297 7.67782 8.02567L29.8809 30.2287C29.929 30.2768 29.992 30.3008 30.055 30.3008C30.118 30.3008 30.181 30.2768 30.229 30.2287C30.325 30.1328 30.325 29.9769 30.2289 29.8808Z" fill="#3A312A"/>
<path d="M30.2289 7.7712C30.1327 7.67506 29.977 7.67506 29.8809 7.7712L7.67782 29.9743C7.58168 30.0702 7.58168 30.2263 7.67782 30.3222C7.72589 30.3703 7.78889 30.3943 7.85172 30.3943C7.91456 30.3943 7.97772 30.3703 8.0258 30.3222L30.2289 8.11918C30.325 8.02304 30.325 7.86718 30.2289 7.7712Z" fill="#3A312A"/>
<path d="M31.8474 6.15269C30.7236 5.02886 28.9015 5.02886 27.7777 6.15269C26.6539 7.27651 26.6539 9.09859 27.7777 10.2224C28.9015 11.3462 30.7236 11.3462 31.8474 10.2224C32.9712 9.09843 32.9712 7.27651 31.8474 6.15269Z" fill="#1974FB"/>
<path d="M32.0212 5.97858C31.4313 5.38861 30.6469 5.0636 29.8125 5.0636C28.9781 5.0636 28.1937 5.38861 27.6037 5.97858C27.0136 6.56854 26.6887 7.35293 26.6887 8.18735C26.6887 9.02177 27.0136 9.80615 27.6037 10.3961C28.2127 11.0051 29.0125 11.3096 29.8125 11.3096C30.6124 11.3096 31.4122 11.0051 32.0212 10.3961C32.6114 9.80615 32.9362 9.02177 32.9362 8.18735C32.9362 7.35293 32.6114 6.56871 32.0212 5.97858ZM31.6733 10.0483C30.6472 11.0744 28.9777 11.0744 27.9517 10.0483C27.4546 9.5512 27.1809 8.89036 27.1809 8.18751C27.1809 7.48467 27.4546 6.82366 27.9517 6.32672C28.4486 5.82961 29.1096 5.55595 29.8125 5.55595C30.5153 5.55595 31.1763 5.82961 31.6733 6.32672C32.1704 6.82383 32.444 7.48467 32.444 8.18751C32.444 8.89036 32.1704 9.5512 31.6733 10.0483Z" fill="#3A312A"/>
<path d="M10.2225 27.7774C9.09867 26.6536 7.27659 26.6536 6.15293 27.7774C5.0291 28.9013 5.0291 30.7233 6.15293 31.8472C7.27676 32.971 9.09884 32.971 10.2225 31.8472C11.3463 30.7233 11.3463 28.9013 10.2225 27.7774Z" fill="#1974FB"/>
<path d="M10.3965 27.6036C9.80652 27.0136 9.02214 26.6886 8.18772 26.6886C7.35329 26.6886 6.56891 27.0134 5.97894 27.6036C5.38881 28.1935 5.06396 28.9779 5.06396 29.8124C5.06396 30.6468 5.38881 31.4312 5.97894 32.0211C6.56891 32.6111 7.35329 32.9361 8.18772 32.9361C9.02214 32.9361 9.80652 32.6111 10.3965 32.0211C10.9866 31.4312 11.3115 30.6468 11.3115 29.8124C11.3115 28.9779 10.9865 28.1935 10.3965 27.6036ZM10.0485 31.6733C9.55157 32.1704 8.89056 32.4441 8.18772 32.4441C7.48487 32.4441 6.82386 32.1704 6.32692 31.6733C5.82981 31.1762 5.55615 30.5154 5.55615 29.8125C5.55615 29.1097 5.82981 28.4487 6.32692 27.9517C6.82386 27.4548 7.48487 27.181 8.18772 27.181C8.89056 27.181 9.55157 27.4546 10.0485 27.9517C10.5456 28.4488 10.8193 29.1097 10.8193 29.8125C10.8193 30.5154 10.5456 31.1762 10.0485 31.6733Z" fill="#3A312A"/>
<path d="M31.8474 27.7774C30.7236 26.6536 28.9015 26.6536 27.7777 27.7774C26.6539 28.9013 26.6539 30.7233 27.7777 31.8472C28.9015 32.971 30.7236 32.971 31.8474 31.8472C32.9712 30.7233 32.9712 28.9013 31.8474 27.7774Z" fill="#1974FB"/>
<path d="M32.0212 27.6036C31.4313 27.0136 30.6469 26.6886 29.8125 26.6886C28.9781 26.6886 28.1937 27.0136 27.6037 27.6036C27.0136 28.1935 26.6887 28.9779 26.6887 29.8124C26.6887 30.6468 27.0136 31.4312 27.6037 32.0211C28.1937 32.6111 28.9781 32.9361 29.8125 32.9361C30.6469 32.9361 31.4313 32.6113 32.0212 32.0211C32.6114 31.4312 32.9362 30.6468 32.9362 29.8124C32.9362 28.9779 32.6114 28.1935 32.0212 27.6036ZM31.6733 31.6733C31.1763 32.1704 30.5153 32.4441 29.8125 32.4441C29.1096 32.4441 28.4486 32.1704 27.9517 31.6733C27.4546 31.1762 27.1809 30.5154 27.1809 29.8125C27.1809 29.1097 27.4546 28.4487 27.9517 27.9517C28.4486 27.4546 29.1096 27.181 29.8125 27.181C30.5153 27.181 31.1763 27.4546 31.6733 27.9517C32.1704 28.4488 32.444 29.1097 32.444 29.8125C32.444 30.5154 32.1704 31.1762 31.6733 31.6733Z" fill="#3A312A"/>
<path d="M8.18772 11.0652C9.777 11.0652 11.0654 9.77688 11.0654 8.18759C11.0654 6.59831 9.777 5.30994 8.18772 5.30994C6.59843 5.30994 5.31006 6.59831 5.31006 8.18759C5.31006 9.77688 6.59843 11.0652 8.18772 11.0652Z" fill="#1974FB"/>
<path d="M10.3965 5.97858C9.80652 5.38861 9.02214 5.0636 8.18772 5.0636C7.35329 5.0636 6.56891 5.38861 5.97894 5.97858C5.38881 6.56854 5.06396 7.35293 5.06396 8.18735C5.06396 9.02177 5.38881 9.80615 5.97894 10.3961C6.56891 10.9861 7.35329 11.3111 8.18772 11.3111C9.02214 11.3111 9.80652 10.9863 10.3965 10.3961C10.9866 9.80615 11.3115 9.02161 11.3115 8.18735C11.3115 7.35309 10.9865 6.56854 10.3965 5.97858ZM10.0485 10.0483C9.55157 10.5454 8.89056 10.8191 8.18772 10.8191C7.48487 10.8191 6.82386 10.5454 6.32692 10.0483C5.82981 9.5512 5.55615 8.89036 5.55615 8.18751C5.55615 7.48467 5.82981 6.82366 6.32692 6.32672C6.82386 5.82961 7.48487 5.55595 8.18772 5.55595C8.89056 5.55595 9.55157 5.82961 10.0485 6.32672C10.5456 6.82383 10.8193 7.48467 10.8193 8.18751C10.8193 8.89036 10.5456 9.5512 10.0485 10.0483Z" fill="#3A312A"/>
<path d="M19 2.98792C18.8642 2.98792 18.7539 3.098 18.7539 3.23401V34.6339C18.7539 34.7699 18.8642 34.88 19 34.88C19.1358 34.88 19.2461 34.7699 19.2461 34.6339V3.23401C19.2461 3.098 19.1358 2.98792 19 2.98792Z" fill="#3A312A"/>
<path d="M34.6338 18.7539H3.23389C3.09804 18.7539 2.98779 18.864 2.98779 19C2.98779 19.136 3.09804 19.2461 3.23389 19.2461H34.6338C34.7697 19.2461 34.8799 19.136 34.8799 19C34.8799 18.864 34.7697 18.7539 34.6338 18.7539Z" fill="#3A312A"/>
<path d="M34.2912 16.1223C32.702 16.1223 31.4136 17.4107 31.4136 19C31.4136 20.5892 32.702 21.8776 34.2912 21.8776C35.8805 21.8776 37.1689 20.5892 37.1689 19C37.1689 17.4107 35.8805 16.1223 34.2912 16.1223Z" fill="#1974FB"/>
<path d="M34.2912 15.8762C32.5687 15.8762 31.1675 17.2776 31.1675 19C31.1675 20.7223 32.5687 22.1237 34.2912 22.1237C36.0137 22.1237 37.415 20.7223 37.415 19C37.415 17.2776 36.0137 15.8762 34.2912 15.8762ZM34.2912 21.6315C32.8401 21.6315 31.6597 20.4511 31.6597 19C31.6597 17.5488 32.8401 16.3684 34.2912 16.3684C35.7424 16.3684 36.9228 17.5488 36.9228 19C36.9228 20.4511 35.7424 21.6315 34.2912 21.6315Z" fill="#3A312A"/>
<path d="M3.70896 16.1223C2.11968 16.1223 0.831299 17.4107 0.831299 19C0.831299 20.5892 2.11968 21.8776 3.70896 21.8776C5.29823 21.8776 6.58661 20.5892 6.58661 19C6.58661 17.4107 5.29823 16.1223 3.70896 16.1223Z" fill="#1974FB"/>
<path d="M3.70896 15.8762C1.98646 15.8762 0.585205 17.2776 0.585205 19C0.585205 20.7223 1.98646 22.1237 3.70896 22.1237C4.54338 22.1237 5.32776 21.7989 5.91789 21.2087C6.50803 20.6188 6.83287 19.8344 6.83271 19C6.83271 17.2775 5.43145 15.8762 3.70896 15.8762ZM5.56992 20.8608C5.07281 21.3577 4.41196 21.6315 3.70896 21.6315C2.25782 21.6315 1.07739 20.4511 1.07739 19C1.07739 17.5488 2.25782 16.3684 3.70896 16.3684C5.16009 16.3684 6.34052 17.5488 6.34052 19C6.34052 19.703 6.06686 20.3638 5.56992 20.8608Z" fill="#3A312A"/>
<path d="M19 31.4135C17.4107 31.4135 16.1223 32.7018 16.1223 34.2911C16.1223 35.8804 17.4107 37.1688 19 37.1688C20.5892 37.1688 21.8776 35.8804 21.8776 34.2911C21.8776 32.7018 20.5892 31.4135 19 31.4135Z" fill="#1974FB"/>
<path d="M19 31.1674C17.2775 31.1674 15.8762 32.5688 15.8762 34.2911C15.8762 36.0136 17.2775 37.415 19 37.415C20.7225 37.415 22.1237 36.0136 22.1237 34.2911C22.1237 32.5686 20.7225 31.1674 19 31.1674ZM19 36.9227C17.5488 36.9227 16.3684 35.7421 16.3684 34.2909C16.3684 32.8398 17.5488 31.6594 19 31.6594C20.4511 31.6594 21.6315 32.8398 21.6315 34.2909C21.6315 35.7421 20.4511 36.9227 19 36.9227Z" fill="#3A312A"/>
<path d="M21.8199 4.28729C22.1395 2.73043 21.1365 1.20925 19.5796 0.889646C18.0228 0.570041 16.5016 1.57304 16.182 3.1299C15.8624 4.68676 16.8654 6.20794 18.4222 6.52755C19.9791 6.84715 21.5003 5.84416 21.8199 4.28729Z" fill="#1974FB"/>
<path d="M19 0.585083C17.2775 0.585083 15.8762 1.9865 15.8762 3.709C15.8762 5.43149 17.2775 6.83275 19 6.83275C20.7225 6.83275 22.1237 5.43132 22.1237 3.709C22.1237 1.98634 20.7225 0.585083 19 0.585083ZM19 6.3404C17.5488 6.3404 16.3684 5.15997 16.3684 3.70883C16.3684 2.2577 17.5488 1.07711 19 1.07711C20.4511 1.07711 21.6315 2.2577 21.6315 3.70883C21.6315 5.15997 20.4511 6.3404 19 6.3404Z" fill="#3A312A"/>
<path d="M19.0104 11.786C16.5843 11.786 14.4377 12.9771 13.1193 14.8053L12.0709 16.9069C11.8627 17.5833 11.75 18.3016 11.75 19.0463C11.75 23.056 15.0004 26.3065 19.0103 26.3065C23.0201 26.3065 26.2705 23.056 26.2705 19.0463C26.2707 15.0366 23.0201 11.786 19.0104 11.786Z" fill="#FCE8CB"/>
<path d="M19.0103 11.5399C16.6062 11.5399 14.3293 12.7067 12.9197 14.6612C12.8403 14.7715 12.865 14.9252 12.9755 15.0048C13.0851 15.084 13.2394 15.0594 13.319 14.9491C14.6363 13.1226 16.764 12.0321 19.0103 12.0321C22.8779 12.0321 26.0247 15.1787 26.0247 19.0463C26.0247 22.9139 22.8779 26.0604 19.0103 26.0604C15.1427 26.0604 11.9962 22.9139 11.9962 19.0463C11.9962 18.3428 12.1005 17.6473 12.3063 16.9792C12.3463 16.8493 12.2734 16.7117 12.1435 16.6716C12.0136 16.6318 11.8759 16.7046 11.8359 16.8344C11.6157 17.5494 11.5042 18.2937 11.5042 19.0463C11.5042 23.1852 14.8714 26.5526 19.0105 26.5526C23.1496 26.5526 26.517 23.1852 26.517 19.0463C26.5167 14.9073 23.1493 11.5399 19.0103 11.5399Z" fill="#3A312A"/>
<path d="M19.0111 12.0317C18.5911 12.0317 18.1809 12.0695 17.7806 12.14C21.0635 12.7224 23.5638 15.5985 23.5638 19.0471C23.5638 22.4956 21.0619 25.3717 17.7773 25.9524C18.1809 26.0246 18.5927 26.0607 19.0111 26.0607C22.878 26.0607 26.0248 22.914 26.0248 19.0471C26.0248 15.1785 22.878 12.0317 19.0111 12.0317Z" fill="#DECAAD"/>
</svg>