
<svg width="34" height="43" viewBox="0 0 34 43" fill="none" xmlns="http://www.w3.org/2000/svg">
<path d="M17.6627 0.343477C17.4593 0.124453 17.1739 0 16.875 0C16.5761 0 16.2907 0.124453 16.0873 0.343477L13.5393 3.08751C13.4237 3.21205 13.3594 3.3757 13.3594 3.5456C13.3594 3.91737 13.6608 4.21875 14.0325 4.21875H15.4688V9.14062C15.4688 9.52893 15.7836 9.84375 16.1719 9.84375H17.5781C17.9664 9.84375 18.2812 9.52893 18.2812 9.14062V4.21875H19.7175C20.0892 4.21875 20.3906 3.91737 20.3906 3.5456C20.3906 3.3757 20.3264 3.21205 20.2107 3.08751L17.6627 0.343477Z" fill="#2387C3"/>
<path d="M7.1158 0.343477C6.91242 0.124453 6.62704 0 6.32812 0C6.02921 0 5.74383 0.124453 5.54045 0.343477L2.99241 3.08751C2.87675 3.21205 2.8125 3.3757 2.8125 3.5456C2.8125 3.91737 3.11388 4.21875 3.48565 4.21875H4.92188V9.14062C4.92188 9.52893 5.2367 9.84375 5.625 9.84375H7.03125C7.41955 9.84375 7.73438 9.52893 7.73438 9.14062V4.21875H9.1706C9.54237 4.21875 9.84375 3.91737 9.84375 3.5456C9.84375 3.3757 9.7795 3.21205 9.66384 3.08751L7.1158 0.343477Z" fill="#2387C3"/>
<path d="M30.7576 3.08751L28.2096 0.343477C28.0062 0.124453 27.7208 0 27.4219 0C27.123 0 26.8376 0.124453 26.6342 0.343477L24.0862 3.08751C23.9706 3.21205 23.9062 3.3757 23.9062 3.5456C23.9062 3.91737 24.2076 4.21875 24.5794 4.21875H26.0156V9.14062C26.0156 9.52893 26.3304 9.84375 26.7188 9.84375H28.125C28.5133 9.84375 28.8281 9.52893 28.8281 9.14062V4.21875H30.2643C30.6361 4.21875 30.9375 3.91737 30.9375 3.5456C30.9375 3.3757 30.8733 3.21205 30.7576 3.08751Z" fill="#2387C3"/>
<path d="M32.3438 28.125C31.5671 28.125 30.9375 28.7546 30.9375 29.5312V35.8594C30.9375 36.6347 30.3066 37.2656 29.5312 37.2656H4.21875V35.8294C4.21875 35.4576 3.91737 35.1562 3.5456 35.1562C3.3757 35.1562 3.21205 35.2205 3.08751 35.3362L0.343476 37.8841C0.124453 38.0876 0 38.373 0 38.6719C0 38.9707 0.124453 39.2562 0.343476 39.4596L3.08751 42.0076C3.21205 42.1232 3.37562 42.1875 3.5456 42.1875C3.91737 42.1875 4.21875 41.8861 4.21875 41.5143V40.0781H29.5312C31.8575 40.0781 33.75 38.1856 33.75 35.8594V29.5312C33.75 28.7546 33.1203 28.125 32.3438 28.125Z" fill="#1974FB"/>
<path d="M33.4065 11.8685L30.6625 9.32054C30.5379 9.20496 30.3744 9.14062 30.2044 9.14062C29.8326 9.14062 29.5312 9.442 29.5312 9.81378V11.25H4.21875C1.89255 11.25 0 13.1425 0 15.4688V21.7969C0 22.5736 0.629648 23.2031 1.40625 23.2031C2.18285 23.2031 2.8125 22.5736 2.8125 21.7969V15.4688C2.8125 14.6934 3.44338 14.0625 4.21875 14.0625H29.5312V15.4987C29.5312 15.8705 29.8326 16.1719 30.2044 16.1719C30.3743 16.1719 30.5379 16.1076 30.6625 15.992L33.4065 13.444C33.6255 13.2405 33.75 12.9551 33.75 12.6562C33.75 12.3573 33.6255 12.072 33.4065 11.8685Z" fill="#1974FB"/>
<path d="M21.0938 23.2031H16.1719V25.3125H9.84375V14.7656C9.84375 10.8824 12.9917 7.73438 16.875 7.73438C20.7583 7.73438 23.9062 10.8824 23.9062 14.7656V20.3906C23.9062 21.9439 22.647 23.2031 21.0938 23.2031Z" fill="#FAB991"/>
<path d="M16.1719 25.3125H9.84375C9.84375 24.1475 10.7881 23.2031 11.9531 23.2031H16.1719V25.3125Z" fill="#1974FB"/>
<path d="M20.3906 15.4688C20.3906 15.8571 20.0758 16.1719 19.6875 16.1719C19.2992 16.1719 18.9844 15.8571 18.9844 15.4688L19.6875 14.7656C20.0758 14.7656 20.3906 15.0804 20.3906 15.4688Z" fill="#463C4B"/>
<path d="M23.2031 15.4688C23.2031 15.8571 22.8883 16.1719 22.5 16.1719C22.1117 16.1719 21.7969 15.8571 21.7969 15.4688C21.7969 15.0804 22.1117 14.7656 22.5 14.7656L23.2031 15.4688Z" fill="#463C4B"/>
<path d="M21.7969 18.9843C21.4086 18.9843 21.0938 18.6695 21.0938 18.2812V16.4062C21.8704 16.4062 22.5 17.0358 22.5 17.8125V18.2812C22.5 18.6695 22.1852 18.9843 21.7969 18.9843Z" fill="#1974FB"/>
<path d="M21.0938 21.0938H21.7969C22.1852 21.0938 22.5 20.7789 22.5 20.3906H20.3906C20.3906 20.7789 20.7054 21.0938 21.0938 21.0938Z" fill="#463C4B"/>
<path d="M15.4688 7.03125H22.5C24.0533 7.03125 25.3125 8.29046 25.3125 9.84375C25.3125 11.397 24.0533 12.6562 22.5 12.6562H17.5781C16.8015 12.6562 16.1719 13.2858 16.1719 14.0625V16.1719C16.1719 16.9486 15.5422 17.5781 14.7656 17.5781V20.3906C14.7656 21.1673 14.136 21.7969 13.3594 21.7969H10.5469C9.77027 21.7969 9.14062 21.1673 9.14062 20.3906V13.3594C9.14062 9.8644 11.9738 7.03125 15.4688 7.03125Z" fill="#463C4B"/>
<path d="M14.7656 15.4688C13.6006 15.4688 12.6562 16.4131 12.6562 17.5781C12.6562 18.7431 13.6006 19.6875 14.7656 19.6875V15.4688Z" fill="#1974FB"/>
<path d="M24.6094 35.1562H7.03125V28.125C7.03125 26.5717 8.29046 25.3125 9.84375 25.3125H21.7969C23.3502 25.3125 24.6094 26.5717 24.6094 28.125V35.1562Z" fill="#23AAE6"/>
<path d="M18.2812 25.3125H14.0625C15.6158 25.3125 16.875 26.5717 16.875 28.125V28.8281C16.875 29.9931 17.8194 30.9375 18.9844 30.9375C20.1494 30.9375 21.0938 29.9931 21.0938 28.8281V28.125C21.0938 26.5717 19.8345 25.3125 18.2812 25.3125Z" fill="#1974FB"/>
<path d="M18.2812 25.3125H16.1719C17.7252 25.3125 18.9844 26.5717 18.9844 28.125V30.9375H21.0938V28.125C21.0938 26.5717 19.8345 25.3125 18.2812 25.3125Z" fill="#463C4B"/>
<path d="M12.6562 30.9375H7.03125V28.125C7.03125 26.5717 8.29046 25.3125 9.84375 25.3125C11.397 25.3125 12.6562 26.5717 12.6562 28.125V30.9375Z" fill="#5AD7FF"/>
<path d="M7.03125 32.3438H21.7969C23.3502 32.3438 24.6094 33.603 24.6094 35.1562C24.6094 36.7095 23.3502 37.9688 21.7969 37.9688H9.84375C8.29046 37.9688 7.03125 36.7095 7.03125 35.1562V32.3438Z" fill="#D7E6F0"/>
<path d="M21.7969 36.5625H9.84375C8.29046 36.5625 7.03125 35.3033 7.03125 33.75V35.1562C7.03125 36.7095 8.29046 37.9688 9.84375 37.9688H21.7969C23.3502 37.9688 24.6094 36.7095 24.6094 35.1562C24.6094 34.9134 24.5786 34.6779 24.5208 34.4531C24.2086 35.6662 23.1074 36.5625 21.7969 36.5625Z" fill="#A5C3DC"/>
<path d="M21.0938 37.9688H9.84375C8.29046 37.9688 7.03125 36.7095 7.03125 35.1562V30.9375H21.0938V37.9688Z" fill="#555A6E"/>
<path d="M7.03125 33.75V35.1562C7.03125 36.7095 8.29046 37.9688 9.84375 37.9688H21.0938V36.5625H9.84375C8.29046 36.5625 7.03125 35.3033 7.03125 33.75Z" fill="#463C4B"/>
</svg>