<svg width="33" height="42" viewBox="0 0 33 42" fill="none" xmlns="http://www.w3.org/2000/svg">
<path d="M19.2031 31.3438H13.2162C12.0973 31.3438 11.0243 31.7882 10.2331 32.5794L8.65625 34.1562L12.1719 37.6719L13.8694 35.9744C14.1332 35.7106 14.4908 35.5625 14.8638 35.5625H19.2031C20.3681 35.5625 21.3125 34.6181 21.3125 33.4531C21.3125 32.2881 20.3681 31.3438 19.2031 31.3438Z" fill="#FAB991"/>
<path d="M29.3381 30.3493C28.7889 29.8001 27.8985 29.8001 27.3494 30.3493L22.1363 35.5624H14.8638C14.4909 35.5624 14.1332 35.7106 13.8694 35.9743L12.1719 37.6718L14.2812 39.7812L15.6875 38.3749H22.4276C22.991 38.3749 23.5208 38.1555 23.9191 37.7571L29.3381 32.338C29.8873 31.7889 29.8873 30.8985 29.3381 30.3493Z" fill="#1974FB"/>
<path d="M19.2031 34.6249H18.7344C18.3461 34.6249 18.0312 34.3101 18.0312 33.9218V32.9843C18.0312 32.596 18.3461 32.2811 18.7344 32.2811H19.2031C19.8503 32.2811 20.3749 32.8058 20.3749 33.453C20.3749 34.1003 19.8503 34.6249 19.2031 34.6249Z" fill="#1974FB"/>
<path d="M8.45032 33.9503L12.1719 37.6719L8.65625 41.1875H0.21875L7.45593 33.9503C7.7305 33.6757 8.17575 33.6757 8.45032 33.9503Z" fill="#5AD7FF"/>
<path d="M12.1719 37.6719L14.4872 39.9872C14.7617 40.2617 14.7617 40.707 14.4872 40.9816L14.2812 41.1875H8.65625L12.1719 37.6719Z" fill="#2387C3"/>
<path d="M18.5 28.5312C26.2665 28.5312 32.5625 22.2353 32.5625 14.4688C32.5625 6.70225 26.2665 0.40625 18.5 0.40625C10.7335 0.40625 4.4375 6.70225 4.4375 14.4688C4.4375 22.2353 10.7335 28.5312 18.5 28.5312Z" fill="#FAA019"/>
<path d="M18.5 3.21875C19.2766 3.21875 19.9062 2.5891 19.9062 1.8125C19.9062 1.0359 19.2766 0.40625 18.5 0.40625C10.7335 0.40625 4.4375 6.70221 4.4375 14.4688C4.4375 15.2454 5.06715 15.875 5.84375 15.875C6.62035 15.875 7.25 15.2454 7.25 14.4688C7.25 8.25559 12.2868 3.21875 18.5 3.21875Z" fill="#FFCD05"/>
<path d="M25.3982 5.58187C23.4932 4.101 21.0997 3.21875 18.5 3.21875C12.2868 3.21875 7.25 8.25559 7.25 14.4688C7.25 17.0685 8.13225 19.4619 9.61311 21.3669L25.3982 5.58187Z" fill="#D7E6F0"/>
<path d="M27.3869 7.57056L11.6018 23.3556C13.5068 24.8365 15.9003 25.7187 18.5 25.7187C24.7132 25.7187 29.75 20.6819 29.75 14.4687C29.75 11.869 28.8677 9.47559 27.3869 7.57056Z" fill="#D7E6F0"/>
<path d="M23.4219 22.9062H13.5781C13.1898 22.9062 12.875 22.5914 12.875 22.2031V10.25H24.125V22.2031C24.125 22.5914 23.8102 22.9062 23.4219 22.9062Z" fill="#463C4B"/>
<path d="M24.125 7.4375H12.875C12.4867 7.4375 12.1719 7.75232 12.1719 8.14062V9.54688C12.1719 9.93518 12.4867 10.25 12.875 10.25H24.125C24.5133 10.25 24.8281 9.93518 24.8281 9.54688V8.14062C24.8281 7.75232 24.5133 7.4375 24.125 7.4375Z" fill="#463C4B"/>
<path d="M18.5 7.4375H12.875C12.4867 7.4375 12.1719 7.75232 12.1719 8.14062V9.54688C12.1719 9.93518 12.4867 10.25 12.875 10.25H18.5C18.8883 10.25 19.2031 9.93518 19.2031 9.54688V8.14062C19.2031 7.75232 18.8883 7.4375 18.5 7.4375Z" fill="#1974FB"/>
<path d="M21.3125 7.4375H19.9062C19.9062 7.04981 19.5908 6.73438 19.2031 6.73438H17.7969C17.4092 6.73438 17.0938 7.04981 17.0938 7.4375H15.6875C15.6875 6.27436 16.6337 5.32812 17.7969 5.32812H19.2031C20.3663 5.32812 21.3125 6.27436 21.3125 7.4375Z" fill="#463C4B"/>
<path d="M17.7969 10.9531H12.875V22.2031C12.875 22.5914 13.1898 22.9062 13.5781 22.9062H18.5V11.6562C18.5 11.2679 18.1852 10.9531 17.7969 10.9531Z" fill="#1974FB"/>
<path d="M16.8593 22.2031C16.6004 22.2031 16.3906 21.9932 16.3906 21.7344V12.125C16.3906 11.866 16.6005 11.6562 16.8593 11.6562C17.1183 11.6562 17.3281 11.8661 17.3281 12.125V21.7343C17.3282 21.9932 17.1183 22.2031 16.8593 22.2031Z" fill="#463C4B"/>
<path d="M14.5156 22.2031C14.2567 22.2031 14.0469 21.9932 14.0469 21.7344V12.125C14.0469 11.866 14.2568 11.6562 14.5156 11.6562C14.7745 11.6562 14.9843 11.8661 14.9843 12.125V21.7343C14.9843 21.9932 14.7744 22.2031 14.5156 22.2031Z" fill="#463C4B"/>
</svg>