
<!-- Generator: Adobe Illustrator 22.0.1, SVG Export Plug-In . SVG Version: 6.00 Build 0)  -->
<svg version="1.1"
	 id="Layer_1" inkscape:version="0.92.3 (2405546, 2018-03-11)" sodipodi:docname="scikit learn logo small.svg" xmlns:cc="http://creativecommons.org/ns#" xmlns:dc="http://purl.org/dc/elements/1.1/" xmlns:inkscape="http://www.inkscape.org/namespaces/inkscape" xmlns:rdf="http://www.w3.org/1999/02/22-rdf-syntax-ns#" xmlns:sodipodi="http://sodipodi.sourceforge.net/DTD/sodipodi-0.dtd" xmlns:svg="http://www.w3.org/2000/svg"
	 xmlns="http://www.w3.org/2000/svg" xmlns:xlink="http://www.w3.org/1999/xlink" x="0px" y="0px" viewBox="0 0 315.2 170"
	 style="enable-background:new 0 0 315.2 170;" xml:space="preserve">
<style type="text/css">
	.st0{fill:#F89939;}
	.st1{fill:#3499CD;}
	.st2{fill:#010101;}
	.st3{fill:#FFFFFF;}
	.st4{font-family:'ArialMT';}
	.st5{font-size:26.2339px;}
</style>
<sodipodi:namedview  bordercolor="#666666" borderopacity="1" fit-margin-bottom="0" fit-margin-left="0" fit-margin-right="0" fit-margin-top="0" gridtolerance="10" guidetolerance="10" id="namedview31" inkscape:current-layer="Layer_1" inkscape:cx="121.6884" inkscape:cy="79.49229" inkscape:pageopacity="0" inkscape:pageshadow="2" inkscape:window-height="626" inkscape:window-maximized="0" inkscape:window-width="777" inkscape:window-x="2951" inkscape:window-y="679" inkscape:zoom="1.0907007" objecttolerance="10" pagecolor="#ffffff" showborder="true" showgrid="false" units="mm">
	</sodipodi:namedview>
<g>
	<g id="g3" transform="translate(-120.60861,-220.26017)">
		<path id="path5" inkscape:connector-curvature="0" class="st0" d="M362.4,364.7c38.5-38.5,44.9-94.5,14.3-125.1
			c-30.6-30.6-86.6-24.2-125.1,14.3c-38.5,38.5-27.4,112-14.3,125.1C247.8,389.6,323.9,403.2,362.4,364.7L362.4,364.7z"/>
		<path id="path7" inkscape:connector-curvature="0" class="st1" d="M204.4,309.1c-22.3-22.3-54.8-26.1-72.6-8.3
			c-17.8,17.8-14,50.3,8.3,72.6c22.3,22.3,65,15.9,72.6,8.3C218.9,375.6,226.8,331.4,204.4,309.1z"/>
	</g>
	<g id="g9" transform="translate(-120.60861,-220.26017)">
		<g id="g11">
			<path id="path13" inkscape:connector-curvature="0" class="st2" d="M281.5,355.3c-3.9,3.6-7.4,6.3-10.4,8c-3,1.7-5.8,2.6-8.5,2.6
				c-3.1,0-5.6-1.2-7.5-3.6c-1.9-2.4-2.9-5.6-2.9-9.7c0-6.1,1.3-13.4,4-21.9c2.6-8.5,5.8-16.4,9.6-23.6l11.1-4.1
				c0.3-0.1,0.6-0.2,0.8-0.2c0.8,0,1.5,0.6,2.1,1.8c0.5,1.2,0.8,2.9,0.8,5c0,5.9-1.4,11.7-4.1,17.2c-2.7,5.5-7,11.5-12.8,17.8
				c-0.2,3-0.3,5.1-0.3,6.2c0,2.5,0.5,4.5,1.4,6c0.9,1.5,2.2,2.2,3.7,2.2c1.6,0,3.2-0.6,5-1.7c1.8-1.1,4.5-3.5,8.1-7.1L281.5,355.3
				L281.5,355.3z M264.8,338.3c3.7-4.1,6.7-8.7,9-13.8c2.3-5.1,3.4-9.5,3.4-13.1c0-1.1-0.2-1.9-0.5-2.6c-0.3-0.7-0.7-1-1.2-1
				c-1.1,0-2.6,2.7-4.7,8C268.8,321.2,266.8,328.6,264.8,338.3L264.8,338.3z"/>
			<path id="path15" inkscape:connector-curvature="0" class="st2" d="M314.1,355.3c-3.7,3.6-7,6.3-9.9,8c-2.9,1.7-6.2,2.6-9.7,2.6
				c-3.9,0-7.1-1.3-9.6-3.8c-2.4-2.5-3.6-5.8-3.6-10c0-6.2,2.1-11.7,6.4-16.7c4.3-5,9-7.5,14.2-7.5c2.7,0,4.9,0.7,6.5,2.1
				c1.6,1.4,2.4,3.2,2.4,5.5c0,6-6.4,10.9-19.2,14.6c1.2,5.7,4.2,8.5,9.1,8.5c1.9,0,3.7-0.5,5.5-1.5c1.7-1,4.4-3.3,7.9-6.9
				L314.1,355.3L314.1,355.3z M291.2,347.2c7.4-2.1,11.1-5.9,11.1-11.6c0-2.8-1-4.2-3-4.2c-1.9,0-3.7,1.5-5.5,4.4
				C292.1,338.8,291.2,342.6,291.2,347.2L291.2,347.2z"/>
			<path id="path17" inkscape:connector-curvature="0" class="st2" d="M360.6,355.3c-4.6,4.4-8,7.3-10,8.6c-2,1.3-3.9,2-5.7,2
				c-4.6,0-6.7-4-6.5-12.1c-2.9,4.1-5.6,7.2-8,9.2c-2.5,2-5,3-7.6,3c-2.6,0-4.7-1.2-6.5-3.6c-1.8-2.4-2.7-5.3-2.7-8.8
				c0-4.4,1.2-8.5,3.6-12.5c2.4-3.9,5.5-7.1,9.2-9.6c3.7-2.4,7.1-3.7,9.9-3.7c3.6,0,6.2,1.7,7.6,5l8.9-4.9h2.4l-3.8,12.8
				c-2,6.4-3,10.8-3,13.2c0,2.5,0.9,3.7,2.7,3.7c1.1,0,2.4-0.6,3.7-1.8s3.3-3,5.7-5.5L360.6,355.3L360.6,355.3z M328.7,357.7
				c2.9,0,5.6-2.5,8.2-7.4c2.6-5,3.9-9.5,3.9-13.7c0-1.6-0.4-2.9-1.1-3.8c-0.7-0.9-1.7-1.4-2.9-1.4c-2.9,0-5.7,2.5-8.2,7.4
				c-2.6,4.9-3.9,9.5-3.9,13.6c0,1.6,0.4,2.8,1.2,3.8C326.5,357.2,327.5,357.7,328.7,357.7L328.7,357.7z"/>
			<path id="path19" inkscape:connector-curvature="0" class="st2" d="M393.1,355.3c-7.3,7.1-12.9,10.7-16.9,10.7
				c-1.8,0-3.3-0.7-4.5-2.2c-1.2-1.5-1.8-3.3-1.8-5.6c0-4.1,2.2-9.6,6.6-16.5c-2.1,1.1-4.5,1.9-7.1,2.3c-1.9,3.5-4.8,7.2-8.9,11.2
				h-1v-3.9c2.3-2.4,4.3-4.9,6.1-7.6c-2.5-1.1-3.7-2.7-3.7-4.9c0-2.2,0.8-4.6,2.3-7.2c1.5-2.5,3.6-3.8,6.3-3.8
				c2.3,0,3.4,1.2,3.4,3.5c0,1.8-0.7,4.4-2,7.8c4.8-0.5,9-4.2,12.6-11.1l4-0.2l-4,11.1c-1.7,4.7-2.8,7.9-3.3,9.6s-0.7,3.2-0.7,4.5
				c0,1.2,0.3,2.2,0.8,2.9c0.6,0.7,1.3,1.1,2.3,1.1c1,0,2-0.4,3-1.1c1-0.7,3.1-2.7,6.4-5.9L393.1,355.3L393.1,355.3z"/>
			<path id="path21" inkscape:connector-curvature="0" class="st2" d="M435.8,355.3c-6.7,7.1-12.5,10.6-17.2,10.6
				c-1.9,0-3.5-0.7-4.7-2c-1.2-1.4-1.8-3.2-1.8-5.5c0-3.1,1.3-7.9,3.8-14.2c1.4-3.4,2-5.6,2-6.5c0-0.9-0.4-1.4-1.1-1.4
				c-0.4,0-0.9,0.2-1.6,0.6c-0.6,0.4-1.3,1-2.1,1.7c-0.7,0.7-1.5,1.5-2.4,2.4c-0.8,0.8-1.6,1.7-2.5,2.8l-2.4,2.8
				c-1.1,1.3-1.7,2.7-2,4.1c-0.4,2.5-0.7,4.7-0.9,6.8c-0.1,1.5-0.1,3.6-0.1,6.2l-9.6,2.3c-0.3-3.9-0.5-6.8-0.5-8.7
				c0-4.7,0.5-9.1,1.6-13.3c1.1-4.2,2.8-8.9,5.2-14.1l10.6-2c-2.2,6-3.7,10.7-4.4,14.2c4.8-5.3,8.5-9,11.3-11c2.8-2,5.3-3.1,7.5-3.1
				c1.5,0,2.7,0.6,3.7,1.7c1,1.1,1.5,2.5,1.5,4.2c0,2.8-1.2,7.4-3.7,13.8c-1.7,4.4-2.6,7.2-2.6,8.5c0,1.7,0.7,2.6,2.1,2.6
				c2.1,0,5.6-2.8,10.3-8.4V355.3z"/>
		</g>
	</g>
	<text id="text25" transform="matrix(1 0 0 1 174.2906 93.1449)" class="st3 st4 st5">scikit</text>
</g>
</svg>
