<svg width="37" height="41" viewBox="0 0 37 41" fill="none" xmlns="http://www.w3.org/2000/svg">
<path d="M31.5282 11.5001C30.8058 11.5001 30.1601 11.0531 29.9028 10.3781C29.8278 10.1811 29.747 9.98684 29.6607 9.7955C29.3627 9.13439 29.5008 8.35876 30.0136 7.84591L30.0143 7.84521C30.6939 7.16555 30.6939 6.06367 30.0143 5.38401L28.6969 4.06662C28.3571 3.72683 27.9117 3.55685 27.4663 3.55685H24.6479C24.2024 3.55685 23.7571 3.72674 23.4173 4.06653L23.4166 4.06723C23.3842 4.09966 23.3506 4.1306 23.3161 4.16004C22.6652 3.89224 22.2365 3.2596 22.2365 2.5527C22.2365 1.59153 21.4573 0.812378 20.4962 0.812378H16.159C15.1979 0.812378 14.4187 1.59153 14.4187 2.5527C14.4187 3.2596 13.9901 3.89215 13.3391 4.16004C13.3046 4.1306 13.271 4.09975 13.2386 4.06723L13.2379 4.06653C12.8981 3.72674 12.4527 3.55685 12.0073 3.55685H9.53339C9.08805 3.55685 8.64262 3.72674 8.30283 4.06662L6.98544 5.38401C6.30578 6.06367 6.30578 7.16555 6.98544 7.84521L6.98614 7.84591C7.49898 8.35876 7.63715 9.13439 7.33902 9.7955C7.2528 9.98675 7.17203 10.181 7.09689 10.3781C6.83963 11.0531 6.1939 11.5001 5.47152 11.5001C4.51035 11.5001 3.7312 12.2792 3.7312 13.2404V15.1035C3.7312 16.0647 4.51035 16.8438 5.47152 16.8438C6.1939 16.8438 6.83963 17.2907 7.09689 17.9657C7.17194 18.1628 7.2528 18.357 7.33902 18.5484C7.63706 19.2095 7.4989 19.9851 6.98614 20.4979L6.98544 20.4986C6.30578 21.1783 6.30578 22.2802 6.98544 22.9598L8.30283 24.2772C8.64262 24.617 9.08805 24.787 9.53339 24.787H12.0073C12.4528 24.787 12.8981 24.6171 13.2379 24.2773L13.2386 24.2766C13.271 24.2442 13.3046 24.2133 13.3391 24.1838C13.99 24.4516 14.4187 25.0843 14.4187 25.7912C14.4187 26.7523 15.1979 27.5315 16.159 27.5315H20.3476C21.3088 27.5315 22.2365 26.7523 22.2365 25.7912C22.2365 25.0843 22.6651 24.4517 23.3161 24.1838C23.3506 24.2133 23.3842 24.2441 23.4166 24.2766L23.4173 24.2773C23.7571 24.6171 24.2025 24.787 24.6479 24.787H27.4662C27.9116 24.787 28.357 24.6171 28.6968 24.2772L30.0142 22.9598C30.6938 22.2802 30.6938 21.1783 30.0142 20.4986L30.0135 20.4979C29.5006 19.9851 29.3625 19.2095 29.6606 18.5484C29.7468 18.3571 29.8276 18.1629 29.9027 17.9657C30.16 17.2907 30.8057 16.8438 31.5281 16.8438C32.4893 16.8438 33.2684 16.0647 33.2684 15.1035V13.2404C33.2685 12.2792 32.4894 11.5001 31.5282 11.5001Z" fill="#FAA019"/>
<path d="M30.45 15.1035V13.2404C30.45 12.2792 29.6708 11.5001 28.7096 11.5001C27.9873 11.5001 27.3415 11.0531 27.0843 10.3781C27.0092 10.1811 26.9283 9.98684 26.8421 9.7955C26.5441 9.13439 26.6823 8.35876 27.195 7.84591L27.1957 7.84521C27.8754 7.16555 27.8754 6.06367 27.1957 5.38401L25.8783 4.06662C25.1987 3.38696 24.0968 3.38696 23.4171 4.06662L23.4164 4.06732C22.9037 4.58007 22.128 4.71824 21.4669 4.4202C21.2757 4.33398 21.0814 4.25321 20.8844 4.17806C20.2094 3.92081 19.7625 3.27507 19.7625 2.5527C19.7625 1.59153 18.9833 0.812378 18.0221 0.812378H16.159C15.1979 0.812378 14.4187 1.59153 14.4187 2.5527C14.4187 3.27507 13.9718 3.92081 13.2968 4.17806C13.0997 4.25312 12.9055 4.33398 12.7142 4.4202C12.0531 4.71824 11.2775 4.58007 10.7647 4.06732L10.764 4.06662C10.0844 3.38696 8.98249 3.38696 8.30283 4.06662L6.98544 5.38401C6.30578 6.06367 6.30578 7.16555 6.98544 7.84521L6.98614 7.84591C7.49898 8.35876 7.63715 9.13439 7.33902 9.7955C7.2528 9.98675 7.17203 10.181 7.09688 10.3781C6.83963 11.0531 6.1939 11.5001 5.47152 11.5001C4.51035 11.5001 3.7312 12.2792 3.7312 13.2404V15.1035C3.7312 16.0647 4.51035 16.8438 5.47152 16.8438C6.1939 16.8438 6.83963 17.2907 7.09688 17.9657C7.17194 18.1628 7.2528 18.357 7.33902 18.5484C7.63706 19.2095 7.4989 19.9851 6.98614 20.4979L6.98544 20.4986C6.30578 21.1783 6.30578 22.2802 6.98544 22.9598L8.30283 24.2772C8.98249 24.9569 10.0844 24.9569 10.764 24.2772L10.7647 24.2765C11.2776 23.7638 12.0531 23.6256 12.7142 23.9237C12.9055 24.0099 13.0997 24.0907 13.2968 24.1658C13.9718 24.4231 14.4187 25.0688 14.4187 25.7912C14.4187 26.7523 15.1979 27.5315 16.159 27.5315H18.0221C18.9833 27.5315 19.7625 26.7523 19.7625 25.7912C19.7625 25.0688 20.2094 24.4231 20.8844 24.1658C21.0814 24.0907 21.2757 24.0099 21.4669 23.9237C22.128 23.6256 22.9037 23.7638 23.4164 24.2765L23.4171 24.2772C24.0968 24.9569 25.1987 24.9569 25.8783 24.2772L27.1957 22.9598C27.8754 22.2802 27.8754 21.1783 27.1957 20.4986L27.195 20.4979C26.6822 19.9851 26.544 19.2095 26.8421 18.5484C26.9283 18.3571 27.0091 18.1629 27.0843 17.9657C27.3415 17.2907 27.9873 16.8438 28.7096 16.8438C29.6708 16.8438 30.45 16.0647 30.45 15.1035Z" fill="#FFCD05"/>
<path d="M17.0906 21.2062C20.9755 21.2062 24.1249 18.0568 24.1249 14.1719C24.1249 10.287 20.9755 7.1377 17.0906 7.1377C13.2057 7.1377 10.0564 10.287 10.0564 14.1719C10.0564 18.0568 13.2057 21.2062 17.0906 21.2062Z" fill="#1974FB"/>
<path d="M22.0624 19.1437C19.3209 21.8852 14.8602 21.8851 12.1188 19.1437C10.7907 17.8156 10.0592 16.0499 10.0592 14.1719H10.9561C11.2374 14.1719 11.4655 13.9438 11.4655 13.6625C11.4655 13.5377 11.4197 13.4172 11.3368 13.324L9.74617 11.5345C9.64712 11.4231 9.50518 11.3594 9.35611 11.3594C9.20705 11.3594 9.06502 11.4231 8.96605 11.5345L7.3755 13.324C7.29262 13.4172 7.24683 13.5377 7.24683 13.6625C7.24683 13.9438 7.4749 14.1719 7.75624 14.1719H8.65299C8.65299 16.4257 9.53066 18.5444 11.1243 20.1381C12.7693 21.7829 14.9299 22.6054 17.0905 22.6054C19.2512 22.6054 21.4118 21.783 23.0568 20.1381C23.3313 19.8635 23.3313 19.4182 23.0568 19.1437C22.7822 18.8691 22.337 18.8691 22.0624 19.1437Z" fill="#2387C3"/>
<path d="M26.4249 14.1719H25.5281C25.5281 11.9181 24.6505 9.79926 23.0569 8.20571C19.7669 4.91605 14.4143 4.91588 11.1244 8.20571C10.8498 8.48028 10.8498 8.92554 11.1244 9.20011C11.399 9.47468 11.8441 9.47468 12.1188 9.20011C14.8603 6.45854 19.321 6.45871 22.0624 9.20011C23.3904 10.528 24.1218 12.2938 24.1218 14.1719H23.2251C22.9437 14.1719 22.7157 14.4 22.7157 14.6813C22.7157 14.8061 22.7615 14.9265 22.8443 15.0198L24.4349 16.8092C24.5339 16.9207 24.6759 16.9844 24.825 16.9844C24.974 16.9844 25.116 16.9207 25.215 16.8092L26.8057 15.0198C26.8885 14.9265 26.9343 14.8061 26.9343 14.6813C26.9343 14.4 26.7063 14.1719 26.4249 14.1719Z" fill="#2387C3"/>
<path d="M20.9789 13.5756L15.3539 10.06C15.137 9.92449 14.8639 9.91738 14.6404 10.0413C14.4168 10.1652 14.2781 10.4007 14.2781 10.6563V17.6875C14.2781 17.9431 14.4168 18.1786 14.6404 18.3025C14.7465 18.3614 14.864 18.3906 14.9812 18.3906C15.1108 18.3906 15.24 18.3549 15.3539 18.2838L20.9789 14.7681C21.1844 14.6396 21.3093 14.4143 21.3093 14.1719C21.3093 13.9295 21.1844 13.7041 20.9789 13.5756Z" fill="#5AD7FF"/>
<path d="M36.4297 36.672H32.9388C32.7037 36.672 32.4842 36.5545 32.3538 36.3588L31.4162 34.9526C31.2587 34.7164 31.2587 34.4087 31.4162 34.1725L32.3538 32.7663C32.4842 32.5706 32.7037 32.4531 32.9388 32.4531H36.4297C36.6238 32.4531 36.7812 32.2957 36.7812 32.1016C36.7812 30.3541 35.3646 28.9375 33.6172 28.9375H30.4531C28.5115 28.9375 26.9375 30.5115 26.9375 32.4531H12.875C12.875 30.5115 11.301 28.9375 9.35938 28.9375H6.19531C4.44787 28.9375 3.03125 30.3541 3.03125 32.1016C3.03125 32.2957 3.18866 32.4531 3.38281 32.4531H6.87374C7.10885 32.4531 7.32831 32.5706 7.45874 32.7663L8.39627 34.1725C8.55377 34.4087 8.55377 34.7164 8.39627 34.9526L7.45874 36.3588C7.32831 36.5545 7.10885 36.672 6.87374 36.672H3.38281C3.18866 36.672 3.03125 36.8294 3.03125 37.0235C3.03125 38.771 4.44787 40.1876 6.19531 40.1876H9.35938C11.301 40.1876 12.875 38.6136 12.875 36.672H26.9375C26.9375 38.6136 28.5115 40.1876 30.4531 40.1876H33.6172C35.3646 40.1876 36.7812 38.771 36.7812 37.0235C36.7812 36.8294 36.6238 36.672 36.4297 36.672Z" fill="#2387C3"/>
<path d="M33.6172 36.672H30.1263C29.8912 36.672 29.6717 36.5545 29.5413 36.3588L28.6037 34.9526C28.4462 34.7164 28.4462 34.4087 28.6037 34.1725L29.5413 32.7663C29.6717 32.5706 29.8912 32.4531 30.1263 32.4531H33.6172C33.8113 32.4531 33.9688 32.2957 33.9688 32.1016C33.9688 30.3541 32.5521 28.9375 30.8047 28.9375H27.6406C25.699 28.9375 24.125 30.5115 24.125 32.4531H10.0625C10.0625 30.5115 8.48847 28.9375 6.54688 28.9375H3.38281C1.63537 28.9375 0.21875 30.3541 0.21875 32.1016C0.21875 32.2957 0.376162 32.4531 0.570312 32.4531H4.06124C4.29635 32.4531 4.51581 32.5706 4.64624 32.7663L5.58377 34.1725C5.74127 34.4087 5.74127 34.7164 5.58377 34.9526L4.64624 36.3588C4.51581 36.5545 4.29635 36.672 4.06124 36.672H0.570312C0.376162 36.672 0.21875 36.8294 0.21875 37.0235C0.21875 38.771 1.63537 40.1876 3.38281 40.1876H6.54688C8.48847 40.1876 10.0625 38.6136 10.0625 36.672H24.125C24.125 38.6136 25.699 40.1876 27.6406 40.1876H30.8047C32.5521 40.1876 33.9688 38.771 33.9688 37.0235C33.9688 36.8294 33.8113 36.672 33.6172 36.672Z" fill="#5AD7FF"/>
<path d="M10.0625 34.5626C10.0625 34.1743 10.3773 33.8595 10.7656 33.8595H23.4219C23.8102 33.8595 24.125 34.1743 24.125 34.5626C24.125 34.9509 23.8102 35.2657 23.4219 35.2657H10.7656C10.3773 35.2657 10.0625 34.9509 10.0625 34.5626Z" fill="#2387C3"/>
</svg>