<svg version="1.1" id="Ebene_1" xmlns="http://www.w3.org/2000/svg" xmlns:xlink="http://www.w3.org/1999/xlink" x="0px" y="0px"
	 viewBox="0 0 539.1 170" style="enable-background:new 0 0 539.1 170;" xml:space="preserve">
<style type="text/css">
	.st0{fill:#09A3D5;}
</style>
<path class="st0" d="M67.4,67.4c-12.4-1.5-13.3-18-29.1-16.6c-7.7,0-14.8,3.2-14.8,10.3c0,10.6,16.4,11.6,26.3,14.3
	c16.9,5.1,33.2,8.6,33.2,26.9c0,23.3-18.2,31.3-42.3,31.3C20.4,133.6,0,126.5,0,108c0-5.1,4.9-9.2,9.7-9.2c6,0,8.2,2.6,10.3,6.8
	c4.7,8.2,9.9,12.6,22.9,12.6c8.2,0,16.7-3.1,16.7-10.3c0-10.2-10.4-12.4-21.1-14.8C19.5,87.8,3.2,85.1,1.3,64
	c-2-35.9,72.8-37.3,77.1-5.8C78.3,63.9,73,67.4,67.4,67.4z M156.4,35.9c26.3,0,41.2,22,41.2,49.1c0,27.2-14.5,49.1-41.2,49.1
	c-14.8,0-24.1-6.3-30.8-16v35.9c0,10.8-3.5,16-11.4,16c-9.6,0-11.4-6.1-11.4-16V49.5c0-8.5,3.6-13.7,11.4-13.7
	c7.3,0,11.4,5.8,11.4,13.7v2.9C133.1,43.1,141.6,35.9,156.4,35.9z M150.2,115.4c15.4,0,22.3-14.2,22.3-30.8c0-16.2-7-30.8-22.3-30.8
	c-16,0-23.4,13.2-23.4,30.8C126.8,101.7,134.3,115.4,150.2,115.4z M215.5,61.5c0-18.9,21.7-25.6,42.8-25.6
	c29.6,0,41.8,8.6,41.8,37.2v27.5c0,6.5,4,19.5,4,23.4c0,6-5.5,9.7-11.4,9.7c-6.5,0-11.4-7.7-14.8-13.2c-9.6,7.7-19.8,13.2-35.4,13.2
	c-17.2,0-30.8-10.2-30.8-26.9c0-14.8,10.6-23.4,23.4-26.3c0,0.1,41.2-9.7,41.2-9.8c0-12.6-4.5-18.2-17.8-18.2
	c-11.7,0-17.7,3.2-22.3,10.3c-3.7,5.3-3.2,8.5-10.3,8.5C220.5,71.1,215.5,67.3,215.5,61.5z M250.7,118.2c18,0,25.6-9.5,25.6-28.5v-4
	c-4.9,1.6-24.5,6.5-29.8,7.3c-5.7,1.1-11.4,5.3-11.4,12C235.4,112.4,242.9,118.2,250.7,118.2z M383.2,0.1c25.5,0,53,15.2,53,39.4
	c0,6.2-4.7,11.4-10.8,11.4c-8.3,0-9.5-4.5-13.2-10.8c-6.1-11.3-13.4-18.8-29.1-18.8c-24.4-0.2-35.3,20.7-35.3,46.7
	c0,26.2,9.1,45.1,34.3,45.1c16.8,0,26-9.7,30.8-22.3c1.9-5.8,5.4-11.4,12.6-11.4c5.7,0,11.4,5.8,11.4,12c0,25.6-26.2,43.4-53.1,43.4
	c-29.5,0-46.2-12.5-55.3-33.2c-4.5-9.9-7.3-20.2-7.3-34.3C320.9,27.6,344.1,0.1,383.2,0.1L383.2,0.1z M528.9,35.9
	c6.5,0,10.3,4.2,10.3,10.8c0,2.7-2.1,8-2.9,10.8l-31.3,82.3c-7,17.9-12.2,30.2-35.9,30.2c-11.3,0-21.1-1-21.1-10.8
	c0-5.7,4.3-8.5,10.3-8.5c1.1,0,2.9,0.5,4,0.5c1.7,0,2.9,0.5,4,0.5c11.9,0,13.6-12.2,17.8-20.6l-30.2-74.8c-1.7-4-2.9-6.8-2.9-9.2
	c0-6.6,5.1-11.4,12-11.4c7.7,0,10.7,6,12.6,12.6l20,59.4l20-54.9C518.4,44.5,518.7,35.9,528.9,35.9z"/>
</svg>