<svg width="45" height="42" viewBox="0 0 45 42" fill="none" xmlns="http://www.w3.org/2000/svg">
<path d="M34.4531 5.32812C32.1231 5.32812 30.2344 3.43936 30.2344 1.10938C30.2344 0.721074 29.9195 0.40625 29.5312 0.40625H15.4688C15.0804 0.40625 14.7656 0.721074 14.7656 1.10938C14.7656 3.43936 12.8769 5.32812 10.5469 5.32812C10.1586 5.32812 9.84375 5.64295 9.84375 6.03125V17.0606C9.84375 20.6971 11.7171 24.077 14.8008 26.0044L20.3484 29.4717C20.5764 29.6142 20.8351 29.6854 21.0938 29.6854H23.9062C24.1649 29.6854 24.4236 29.6142 24.6516 29.4717L30.1992 26.0044C33.2829 24.077 35.1562 20.6971 35.1562 17.0606V6.03125C35.1562 5.64295 34.8414 5.32812 34.4531 5.32812Z" fill="#FAA019"/>
<path d="M27.3867 26.0044L21.8391 29.4717C21.3831 29.7567 20.8044 29.7567 20.3484 29.4717L14.8008 26.0044C11.7171 24.077 9.84375 20.6971 9.84375 17.0606V6.03125C9.84375 5.64295 10.1586 5.32812 10.5469 5.32812C12.8769 5.32812 14.7656 3.43936 14.7656 1.10938C14.7656 0.721074 15.0804 0.40625 15.4688 0.40625H26.7188C27.107 0.40625 27.4219 0.721074 27.4219 1.10938C27.4219 3.43936 29.3106 5.32812 31.6406 5.32812C32.0289 5.32812 32.3438 5.64295 32.3438 6.03125V17.0606C32.3438 20.6971 30.4704 24.077 27.3867 26.0044Z" fill="#FFD205"/>
<path d="M16.2914 23.6194C14.0152 22.1968 12.6562 19.7449 12.6562 17.0606V7.81745C14.84 7.12936 16.5669 5.40239 17.255 3.21875H24.9325C25.6206 5.40248 27.3476 7.12936 29.5312 7.81745V17.0606C29.5312 19.7449 28.1723 22.1968 25.8961 23.6194L21.0938 26.6209L16.2914 23.6194Z" fill="#555A6E"/>
<path d="M29.5312 7.81745C27.3475 7.12936 25.6206 5.40248 24.9325 3.21875H21.0938V26.6209L25.8961 23.6194C28.1723 22.1968 29.5312 19.7449 29.5312 17.0606V7.81745Z" fill="#463C4B"/>
<path d="M24.9325 3.21875H17.255C16.5669 5.40248 14.8399 7.12936 12.6562 7.81745V9.2237C14.84 8.53561 16.5669 6.80864 17.255 4.625H24.9325C25.6206 6.80873 27.3476 8.53561 29.5312 9.2237V7.81745C27.3475 7.12936 25.6206 5.40248 24.9325 3.21875Z" fill="#463C4B"/>
<path d="M33.0469 38.375H24.6094C23.8327 38.375 23.2031 39.0046 23.2031 39.7812V41.1875H34.4531V39.7812C34.4531 39.0046 33.8236 38.375 33.0469 38.375Z" fill="#5AD7FF"/>
<path d="M33.0469 38.375H28.8281V41.1875H34.4531V39.7812C34.4531 39.0046 33.8236 38.375 33.0469 38.375Z" fill="#2387C3"/>
<path d="M33.75 29.2344H28.8281C26.4981 29.2344 24.6094 31.1231 24.6094 33.4531V38.375H28.8281V34.8594C28.8281 34.0827 29.4577 33.4531 30.2344 33.4531H33.75C34.915 33.4531 35.8594 32.5087 35.8594 31.3438C35.8594 30.1788 34.915 29.2344 33.75 29.2344Z" fill="#FAB991"/>
<path d="M43.8849 28.24C43.3359 27.6908 42.4455 27.6909 41.8962 28.24L36.6831 33.4531H30.2344C29.4578 33.4531 28.8281 34.0827 28.8281 34.8593V38.3749H33.0469V37.6718C33.0469 36.8952 33.6765 36.2656 34.4531 36.2656H36.9744C37.538 36.2656 38.0677 36.0461 38.4659 35.6478L43.885 30.2287C44.4342 29.6795 44.4342 28.7892 43.8849 28.24Z" fill="#F0915A"/>
<path d="M33.75 32.5157H33.2812C32.8929 32.5157 32.5781 32.2008 32.5781 31.8125V30.875C32.5781 30.4867 32.8929 30.1719 33.2812 30.1719H33.75C34.3972 30.1719 34.9218 30.6966 34.9218 31.3437C34.9218 31.991 34.3972 32.5157 33.75 32.5157Z" fill="#F0915A"/>
<path d="M20.3906 38.375H11.9531C11.1764 38.375 10.5469 39.0046 10.5469 39.7812V41.1875H21.7969V39.7812C21.7969 39.0046 21.1673 38.375 20.3906 38.375Z" fill="#5AD7FF"/>
<path d="M20.3906 38.375H16.1719V41.1875H21.7969V39.7812C21.7969 39.0046 21.1673 38.375 20.3906 38.375Z" fill="#2387C3"/>
<path d="M11.25 29.2344H16.1719C18.5019 29.2344 20.3906 31.1231 20.3906 33.4531H11.25C10.085 33.4531 9.14062 32.5087 9.14062 31.3438C9.14062 30.1788 10.085 29.2344 11.25 29.2344Z" fill="#FAB991"/>
<path d="M11.25 32.5157H11.7187C12.107 32.5157 12.4218 32.2008 12.4218 31.8125V30.875C12.4218 30.4867 12.107 30.1719 11.7187 30.1719H11.25C10.6027 30.1719 10.0781 30.6966 10.0781 31.3437C10.0781 31.991 10.6027 32.5157 11.25 32.5157Z" fill="#F0915A"/>
<path d="M8.31689 33.4532L3.10375 28.24C2.55461 27.6909 1.66419 27.6908 1.11505 28.24C0.565818 28.7892 0.565818 29.6796 1.11505 30.2287L6.53394 35.6476C6.93226 36.0461 7.46207 36.2656 8.02562 36.2656H10.5469C11.3235 36.2656 11.9531 36.8952 11.9531 37.6718V38.3749H20.3906V33.4531H8.31689V33.4532Z" fill="#F0915A"/>
<path d="M10.5469 36.2656C11.3235 36.2656 11.9531 36.8952 11.9531 37.6719V38.375H16.1719V37.6719C16.1719 36.8952 15.5423 36.2656 14.7656 36.2656H10.5469Z" fill="#FAB991"/>
<path d="M24.4295 11.9313L21.8814 9.18723C21.678 8.9682 21.3927 8.84375 21.0938 8.84375C20.7948 8.84375 20.5095 8.9682 20.3061 9.18723L17.758 11.9313C17.6424 12.0558 17.5781 12.2194 17.5781 12.3893C17.5781 12.761 17.8795 13.0624 18.2513 13.0624H19.6875V19.3905C19.6875 19.7788 20.0023 20.0937 20.3906 20.0937H21.7969C22.1852 20.0937 22.5 19.7788 22.5 19.3905V13.0624H23.9362C24.308 13.0624 24.6094 12.761 24.6094 12.3893C24.6094 12.2195 24.5451 12.0558 24.4295 11.9313Z" fill="#D7E6F0"/>
</svg>