<!-- Generator: Adobe Illustrator 22.0.1, SVG Export Plug-In . SVG Version: 6.00 Build 0)  -->
<svg version="1.1" id="Layer_1" xmlns="http://www.w3.org/2000/svg" xmlns:xlink="http://www.w3.org/1999/xlink" x="0px" y="0px"
	 viewBox="0 0 448.5 170" style="enable-background:new 0 0 448.5 170;" xml:space="preserve">
<style type="text/css">
	.st0{fill:url(#SVGID_1_);}
</style>
<radialGradient id="SVGID_1_" cx="197.9892" cy="111.3963" r="0.4249" gradientTransform="matrix(227.512 -41.529 -36.547 -200.219 -40881.3477 30574.5234)" gradientUnits="userSpaceOnUse">
	<stop  offset="0" style="stop-color:#4FFFFF;stop-opacity:0.894"/>
	<stop  offset="1" style="stop-color:#00C4C2;stop-opacity:0.894"/>
</radialGradient>
<path class="st0" d="M86.8,169.7c-6.1-1.3-11.7-5.7-14.3-11.3c-1.4-2.9-1.5-3.9-1.5-8.4c0-4,0.3-5.6,1.2-7.6
	c2.4-5.4,6.7-9.3,12.2-11l2.9-0.9l1.5-5.2c2.6-8.9,4.3-16.6,3.8-18.9c-0.2-1.1-1.6-8.5-2.6-15.3c-3.2-20.7-3.5-21.7-8.8-25.5
	c-5-3.7-6.9-6.3-9.3-13.5c-0.8-2.3-2.2-4-10.1-11.8c-8.9-8.8-8.8-8.9-11-9.9c-1.9-0.8-6.9-1.7-8.9-2l-3.6-0.6l-3.7,3.7
	c-2.6,2.6-4.9,4.3-7.8,5.7c-3.9,1.9-4.2,2-8.7,1.8c-4-0.2-5.1-0.5-8-2c-5-2.7-8.8-7.6-9.9-12.7c-0.7-3.4-0.4-8.7,0.8-11.9
	C2.8,8.1,7.1,3.5,11.4,1.5c2.9-1.3,4-1.5,8.1-1.5c4.3,0,5.1,0.2,8.3,1.7c2.3,1.1,4.5,2.7,6.2,4.6c2.8,3,5.4,7.7,5.4,9.6
	c0,0.7,2.4,3.6,6.6,7.8c6.2,6.2,4.8,6.1,8.4,7.4c2.1,0.8,9,3.5,12.8,5.1l7.1,3.4l2.8-3.9c3.9-5.4,8.1-6.5,14.9-6.5
	c9.4,0,13.1,2.4,17.1,10.9c2.2,4.7,2.3,4.8,4.9,5.6c4.3,1.3,7.3,1,14.3-1.4c6.5-2.2,20.9-8.1,25.3-10.3c1.3-0.7,2.8-1.9,3.2-2.6
	c1.4-2.6,6.7-7,9.9-8.2c4.4-1.7,11.4-1.4,15.7,0.6c3.9,1.8,7.3,5.2,9.2,9.2c1.4,2.9,1.5,3.6,1.5,8.7c0,4.6-0.2,6-1.2,8.1
	c-1.7,3.8-5.9,7.9-9.8,9.7c-2.9,1.3-3.9,1.5-8.4,1.5c-4.3,0-5.5-0.2-8-1.4c-5.3-2.5-9.3-7-10.8-12.3c-0.7-2.6-2.2-3.5-7.7-4.9
	c-6-1.5-10.3-1.3-18.9,2.4c-12.2,5.3-16.9,9.5-18.8,13.3c-1.1,2.2-6,7-8.3,8.2c-0.9,0.4-2.5,1.1-3.7,1.4l-2.1,0.6l0,11.8
	c0,7.7-0.5,14.7-1.1,19.9c-1.1,9-1,8.4,2.6,23.2c2.1,8.8,2.2,9,4.1,10.2c10.4,6.6,12.4,21,4.2,30.3
	C101.1,168.2,92.9,170.9,86.8,169.7L86.8,169.7z"/>
<path d="M198.9,94.5h-24.6V79.6l-3.6,0.1v2.3c0,1.5,0,3.2-0.1,5.1c0,1.7-0.1,3.4-0.2,5.1c-0.1,1.5-0.2,2.3-0.4,2.3h-13v3.3h13.6
	v52.8c0,5.6,1.3,9.6,4,11.8c2.7,2.2,6.7,3.3,12.1,3.3c2.1,0,4.3-0.1,6.5-0.3c2.2-0.2,3.9-0.4,5-0.7v-3.1c-1,0.2-2.7,0.3-5.1,0.5
	c-2.4,0.2-4.3,0.3-5.6,0.3c-4.6,0-8-0.8-10-2.5c-2.1-1.7-3.1-5.2-3.1-10.6V97.8h24.6L198.9,94.5L198.9,94.5z M235.1,93.2
	c-6,0-11.1,1-15.3,2.9s-7.7,4.5-10.3,7.8c-2.6,3.3-4.6,7.1-5.8,11.6c-1.2,4.4-1.8,9.1-1.8,14.1c0,12.9,2.9,22.2,8.6,27.9
	c5.8,5.7,14,8.6,24.6,8.6c10.7,0,18.8-3.2,24.4-9.5c5.6-6.3,8.4-15.3,8.4-27c0-11.2-2.5-20-7.4-26.5
	C255.8,96.5,247.3,93.2,235.1,93.2L235.1,93.2z M235.2,162.6c-10.1,0-17.5-2.7-22.3-8.1c-4.8-5.4-7.2-13.7-7.2-25.1
	c0-4.7,0.5-9,1.6-13s2.8-7.5,5.1-10.4c2.3-2.9,5.3-5.2,9.1-6.9c3.8-1.7,8.3-2.5,13.6-2.5c11.3,0,19,3,23.2,8.9
	c4.2,5.9,6.3,13.9,6.3,24c0,10.8-2.5,19.1-7.4,24.7C252.1,159.8,244.8,162.6,235.2,162.6L235.2,162.6z M307.1,93.2
	c-6.1,0-11.5,1.6-16,4.9c-4.5,3.2-7.4,7.3-8.6,12.2V94.5h-3.7v70.3h3.6v-42.7c0-3.9,0.7-7.4,2-10.6c1.4-3.1,3.2-5.8,5.4-7.9
	c2.3-2.2,4.9-3.8,7.9-5c3-1.2,6.1-1.7,9.3-1.7c2.6,0,5.2,0.1,7.6,0.4c2.4,0.3,4.5,0.7,6.3,1.2v-4c-1.6-0.4-3.5-0.8-5.6-1
	C313.4,93.3,310.6,93.2,307.1,93.2L307.1,93.2z M351.7,93.2c-10.5,0-18.5,3.3-24.1,9.8c-5.6,6.5-8.4,15.4-8.4,26.5
	c0,12.7,2.8,22,8.4,27.8c5.6,5.8,13.6,8.7,23.9,8.7c9.9,0,17.2-2.2,22.1-6.7c4.8-4.4,7.7-9.9,8.5-16.4h-3.6c-0.3,2.6-1.1,5-2.2,7.4
	c-1.1,2.4-2.8,4.5-5,6.3c-2.2,1.8-4.9,3.3-8.1,4.3c-3.2,1.1-7,1.6-11.4,1.6c-9.2,0-16.3-2.6-21.4-7.7c-5-5.1-7.5-13.5-7.5-25.2
	c0-10.4,2.4-18.5,7.3-24.2c4.9-5.8,12-8.6,21.5-8.6c8.6,0,15.1,1.9,19.6,5.6c4.4,3.8,6.8,8.7,7,14.8h3.7c-0.2-7.1-2.7-12.9-7.7-17.4
	C369.4,95.5,361.9,93.2,351.7,93.2L351.7,93.2z M448.3,112.3c0-6.2-2.2-11-6.5-14.2c-4.3-3.2-10.6-4.9-18.7-4.9
	c-6.4,0-12,1.1-16.7,3.4s-7.8,5.6-9.1,10V62.9h-3.6v101.9h3.6v-48.2c0-3.5,0.7-6.5,2.1-9c1.4-2.5,3.3-4.6,5.6-6.1
	c2.3-1.6,5-2.7,8.1-3.5c3.1-0.8,6.3-1.2,9.6-1.2c8.1,0,13.8,1.5,17.1,4.6c3.3,3.1,4.9,7.3,4.9,12.7v43.7c0,3.2,0,5.2,0.1,5.9
	c0,0.7,0.1,1.1,0.2,1.2h3.7c-0.1-0.1-0.2-0.5-0.2-1.2c0-0.7-0.1-2.8-0.1-6.1V112.3z"/>
</svg>
